<svg width="30" height="30" viewBox="0 0 30 30" fill="none" xmlns="http://www.w3.org/2000/svg">
<path d="M15 29C22.732 29 29 22.732 29 15C29 7.26801 22.732 1 15 1C7.26801 1 1 7.26801 1 15C1 22.732 7.26801 29 15 29Z" stroke="#26840F" stroke-width="2" stroke-miterlimit="10" stroke-linecap="round" stroke-linejoin="round"/>
<path d="M15 17C17.7614 17 20 14.7614 20 12C20 9.23858 17.7614 7 15 7C12.2386 7 10 9.23858 10 12C10 14.7614 12.2386 17 15 17Z" stroke="#26840F" stroke-width="2" stroke-miterlimit="10" stroke-linecap="round" stroke-linejoin="round"/>
<path d="M4.3999 24.1001C6.1999 20.0001 10.1999 17.1001 14.9999 17.1001C19.7999 17.1001 23.8999 20.0001 25.5999 24.1001" stroke="#26840F" stroke-width="2" stroke-miterlimit="10" stroke-linecap="round" stroke-linejoin="round"/>
</svg>
