<svg width="30" height="28" viewBox="0 0 30 28" fill="none" xmlns="http://www.w3.org/2000/svg">
<path d="M21.9094 2.24C22.6893 2.23931 23.4615 2.40143 24.1808 2.71683C24.9 3.03224 25.5518 3.4946 26.0979 4.0768C27.2231 5.27115 27.8538 6.88034 27.8538 8.5568C27.8538 10.2333 27.2231 11.8425 26.0979 13.0368L15 24.7856L3.90214 13.0368C2.77691 11.8425 2.14619 10.2333 2.14619 8.5568C2.14619 6.88034 2.77691 5.27115 3.90214 4.0768C4.44857 3.49502 5.10039 3.03291 5.81954 2.71745C6.53868 2.40199 7.31074 2.23952 8.09062 2.23952C8.8705 2.23952 9.64256 2.40199 10.3617 2.71745C11.0809 3.03291 11.7327 3.49502 12.2791 4.0768L15 6.9888L17.7102 4.0992C18.2546 3.51006 18.9071 3.04177 19.6286 2.72232C20.3501 2.40287 21.1258 2.23883 21.9094 2.24ZM21.9094 3.0048e-06C20.8442 -0.000940842 19.7895 0.220481 18.8072 0.651285C17.825 1.08209 16.9348 1.7136 16.1891 2.5088L15 3.7632L13.8109 2.5088C13.0642 1.71504 12.1739 1.08462 11.1918 0.654296C10.2097 0.223971 9.15548 0.00234912 8.09062 0.00234912C7.02576 0.00234912 5.97155 0.223971 4.98945 0.654296C4.00734 1.08462 3.11699 1.71504 2.3703 2.5088C0.851175 4.12566 0 6.30152 0 8.568C0 10.8345 0.851175 13.0103 2.3703 14.6272L15 28L27.6297 14.6272C29.1488 13.0103 30 10.8345 30 8.568C30 6.30152 29.1488 4.12566 27.6297 2.5088C26.8832 1.71461 25.9929 1.08376 25.0108 0.653032C24.0287 0.2223 22.9744 0.00030923 21.9094 3.0048e-06Z" fill="#26840F"/>
</svg>
